<svg width="32" height="32" viewBox="0 0 32 32" fill="none" xmlns="http://www.w3.org/2000/svg">
<g filter="url(#filter0_d_103_79)">
<path d="M14.5837 2H24.3337C24.9083 2 25.4594 2.22652 25.8657 2.62972C26.2721 3.03292 26.5003 3.57978 26.5003 4.15V21.35C26.5003 21.9202 26.2721 22.4671 25.8657 22.8703C25.4594 23.2735 24.9083 23.5 24.3337 23.5H14.5837C14.009 23.5 13.4579 23.2735 13.0516 22.8703C12.6453 22.4671 12.417 21.9202 12.417 21.35V18C12.417 17.4477 12.8647 17 13.417 17H13.5837C14.1359 17 14.5837 17.4477 14.5837 18V20.35C14.5837 20.9023 15.0314 21.35 15.5837 21.35H23.3337C23.8859 21.35 24.3337 20.9023 24.3337 20.35V5.15C24.3337 4.59771 23.8859 4.15 23.3337 4.15H15.5837C15.0314 4.15 14.5837 4.59772 14.5837 5.15V7C14.5837 7.55228 14.1359 8 13.5837 8H13.417C12.8647 8 12.417 7.55228 12.417 7V4.15C12.417 3.57978 12.6453 3.03292 13.0516 2.62972C13.4579 2.22652 14.009 2 14.5837 2Z" fill="white"/>
<path d="M19.2803 12.2197C19.5732 12.5126 19.5732 12.9874 19.2803 13.2803L17.2803 15.2803C16.9874 15.5732 16.5126 15.5732 16.2197 15.2803C15.9268 14.9874 15.9268 14.5126 16.2197 14.2197L16.9393 13.5L9.75 13.5C9.3358 13.5 9 13.1642 9 12.75C9 12.3358 9.3358 12 9.75 12L16.9393 12L16.2197 11.2803C15.9268 10.9874 15.9268 10.5126 16.2197 10.2197C16.5126 9.9268 16.9874 9.9268 17.2803 10.2197L19.2803 12.2197Z" fill="#EFEFEF"/>
</g>
<defs>
<filter id="filter0_d_103_79" x="0" y="0" width="32" height="32" filterUnits="userSpaceOnUse" color-interpolation-filters="sRGB">
<feFlood flood-opacity="0" result="BackgroundImageFix"/>
<feColorMatrix in="SourceAlpha" type="matrix" values="0 0 0 0 0 0 0 0 0 0 0 0 0 0 0 0 0 0 127 0" result="hardAlpha"/>
<feOffset dy="4"/>
<feGaussianBlur stdDeviation="2"/>
<feComposite in2="hardAlpha" operator="out"/>
<feColorMatrix type="matrix" values="0 0 0 0 0 0 0 0 0 0 0 0 0 0 0 0 0 0 0.25 0"/>
<feBlend mode="normal" in2="BackgroundImageFix" result="effect1_dropShadow_103_79"/>
<feBlend mode="normal" in="SourceGraphic" in2="effect1_dropShadow_103_79" result="shape"/>
</filter>
</defs>
</svg>
